<?xml version="1.0" encoding="UTF-8" standalone="no"?><!DOCTYPE svg PUBLIC "-//W3C//DTD SVG 1.1//EN" "http://www.w3.org/Graphics/SVG/1.1/DTD/svg11.dtd"><svg width="100%" height="100%" viewBox="0 0 1985 473" version="1.1" xmlns="http://www.w3.org/2000/svg" xmlns:xlink="http://www.w3.org/1999/xlink" xml:space="preserve" xmlns:serif="http://www.serif.com/" style="fill-rule:evenodd;clip-rule:evenodd;"><g id="clip"><clipPath id="_clip1"><rect x="0" y="0" width="1984.25" height="472.441"/></clipPath><g clip-path="url(#_clip1)"><path id="dp_path002" d="M149.484,37.155l-110.099,160.349l20.163,45.543l345.195,8.209l18.41,-17.392l-79.846,-178.628l-193.823,-18.081Z" style="fill:#383838;"/><path id="dp_path003" d="M296.607,112.595l-10.638,129.313l129.97,5.197l8.624,-16.089l-127.956,-118.421Z" style="fill:#383838;"/><path id="dp_path004" d="M343.307,55.236l-46.7,57.359l127.95,118.421l-81.25,-175.78Z" style="fill:#2f2e2e;"/><path id="dp_path005" d="M296.229,112.508l-187.084,87.061l58.267,41.932l70.12,11.991l47.821,-10.568l10.876,-130.416Z" style="fill:#4a4a4a;"/><path id="dp_path006" d="M109.145,199.364l2.259,39.371l32.397,5.868l24.835,-2.271l-59.491,-42.968Z" style="fill:#5a5656;"/><path id="dp_path007" d="M37.348,197.436l16.277,33.58l36.147,15.949l21.875,-8.197l-2.303,-39.36l-71.996,-1.972Z" style="fill:#6a6969;"/><path id="dp_path008" d="M148.591,37.144l-39.088,162.22l-72.367,-1.928l111.455,-160.292Z" style="fill:#8d8c8c;"/><path id="dp_path009" d="M148.591,37.097l147.996,75.818l-187.442,86.698l39.446,-162.516Z" style="fill:#676666;"/><path id="dp_path010" d="M148.591,37.097l193.958,18.139l-46.32,57.679l-147.638,-75.818Z" style="fill:#4f4e4f;"/><path id="dp_path011" d="M415.297,262.156l27.978,-10.9l-18.712,13.08l-9.266,-2.18Z" style="fill:#687f91;"/><path id="dp_path012" d="M434.717,249.457l26.524,-16.845l-13.261,-9.628l27.977,10.937l-41.24,15.536Z" style="fill:#5e809a;"/><path id="dp_path013" d="M418.185,215.172l12.172,0l9.63,15.624l-10.9,-11.264l-10.902,-4.36Z" style="fill:#5e809a;"/><path id="dp_path014" d="M42.081,208.949l-15.441,-2.27l-31.339,22.936l31.339,-16.804l15.441,-3.862Z" style="fill:#5e809a;"/><path id="dp_path015" d="M31.636,219.532l-23.845,14.389l52.912,19.583l-37.924,-20.937l8.857,-13.035Z" style="fill:#5e809a;"/><path id="dp_path016" d="M8.472,244.905l19.984,20.666l31.793,0l-28.613,-7.04l-23.164,-13.626Z" style="fill:#5e809a;"/><path id="dp_path017" d="M53.667,231.016l15.893,34.244l-7.947,15.452l89.244,0.483l-81.525,12.796l36.561,13.28l-13.852,8.692l40.65,7.726l-40.65,11.347l37.47,34.692l125.806,-4.509l-122.626,17.381l105.581,9.659l-20.196,10.624l89.019,0l42.237,-28.008l-29.975,0l45.872,-19.799l-57.681,-17.865l80.729,-13.522l-34.857,-16.418l44.964,-6.278l15.441,-27.525l-9.082,-3.379l19.529,-18.833l0.111,-18.689l-5.659,3.276l-111.629,9.618l-177.584,-2.414l-75.844,-12.031Z" style="fill:#80a2bc;"/><path id="dp_path018" d="M50.821,231.161l7.987,-0.145c2.952,0 6.511,-0.264 9.728,0.148c5.3,0.677 14.708,2.641 22.069,3.919c7.527,1.306 15.344,3.001 23.088,3.92c7.744,0.918 15.572,1.3 23.376,1.597c12.73,0.484 35.327,1.124 52.998,1.308c21.102,0.217 50.288,0.219 73.616,0.001c22.121,-0.208 47.574,-0.606 66.353,-1.309c15.459,-0.579 33.396,-2.215 46.319,-2.904c10.398,-0.555 23.182,-0.289 31.217,-1.232c5.812,-0.683 13.964,-3.545 16.989,-4.431l1.162,-0.872l-1.162,2.034c-2.081,1.306 -7.209,4.78 -11.325,5.808c-4.937,1.233 -12.193,1.108 -18.296,1.597c-8.156,0.653 -20.428,1.508 -30.636,2.324c-11.809,0.944 -26.935,2.251 -40.22,3.339c-13.164,1.078 -26.293,2.784 -39.495,3.194c-13.236,0.412 -26.617,-0.58 -39.928,-0.726c-15.39,-0.17 -37.726,-0.048 -52.416,-0.291c-11.912,-0.196 -23.838,-0.299 -35.72,-1.161c-12.656,-0.919 -28.241,-2.758 -40.218,-4.355c-10.602,-1.415 -22.724,-3.728 -31.654,-5.228c-7.313,-1.229 -16.286,-2.685 -21.925,-3.775c-3.999,-0.772 -11.907,-2.76 -11.907,-2.76Z" style="fill:#5e809a;"/><path id="dp_path019" d="M246.604,268.691c8.685,-0.754 26.056,-2.259 39.103,-3.115c14.725,-0.965 34.614,-2.04 49.242,-2.68c12.835,-0.56 26.938,-0.661 38.523,-1.157c10.339,-0.444 31.573,-2.248 30.993,-1.82c-0.58,0.428 -23.172,3.066 -34.469,4.385c0,0 -22.157,3.124 -31.283,4.387c-7.817,1.082 -15.585,2.677 -23.462,3.185c-8.255,0.531 -18.779,0.531 -26.068,0c-5.97,-0.435 -11.702,-2.739 -17.67,-3.185c-7.094,-0.532 -18.972,-0.178 -24.909,0Z" style="fill:#5e809a;"/><path id="dp_path020" d="M75.999,249.459c6.822,0.94 20.468,2.818 30.124,4.045c9.258,1.176 18.522,2.335 27.805,3.309c9.848,1.035 22.208,2.415 31.284,2.898c7.713,0.41 15.448,-0.028 23.172,0.002c8.739,0.035 26.889,-0.132 29.256,0.206c2.365,0.337 -9.253,1.326 -15.063,1.82c0,0 -14.606,2.905 -22.013,3.476c-7.531,0.58 -15.457,0.38 -23.173,0.001c-7.87,-0.387 -16.316,-1.74 -24.04,-2.32c-7.423,-0.556 -15.055,0.54 -22.304,-1.157c-9.559,-2.239 -26.552,-8.932 -35.048,-12.28Z" style="fill:#5e809a;"/><path id="dp_path021" d="M150.857,280.192c6.868,0.509 20.606,1.528 30.319,2.147c9.316,0.592 18.633,1.165 27.96,1.556c9.893,0.414 22.315,1.016 31.403,0.928c7.724,-0.075 15.414,-1.026 23.126,-1.454c10.78,-0.598 39.16,-2.564 41.551,-2.134c2.389,0.429 -21.441,3.857 -27.208,4.716c0,0 -16.091,1.004 -23.579,1.813c-7.146,0.773 -14.205,2.245 -21.349,3.043c-8.103,0.905 -18.164,3.013 -27.268,2.392c-9.692,-0.662 -21.724,-4.191 -30.884,-6.358c-8.1,-1.917 -18.748,-5.072 -24.071,-6.649Z" style="fill:#5e809a;"/><path id="dp_path022" d="M109.145,198.599l87.68,-40.394" style="fill:none;stroke:url(#_Linear2);stroke-width:1.33px;"/><path id="dp_path023" d="M65.972,196.98l43.509,1.181" style="fill:none;stroke:url(#_Linear3);stroke-width:2px;"/><path id="dp_path024" d="M125.729,125.737l-17.318,72.426" style="fill:none;stroke:url(#_Linear4);stroke-width:2px;"/><g id="dp_dp025"><path id="dp_path026" d="M689.392,197.993l-69.914,0l-21.376,60.52l-28.904,0l71.728,-205.044l55.511,0l71.752,205.044l-57.421,0l-21.376,-60.52Zm-61.659,-26.629l53.161,0l-26.484,-77.927l-26.677,77.927Z" style="fill:#2f2e2e;"/><path id="dp_path027" d="M946.942,104.452c-8.569,-8.546 -17.913,-15.13 -28.033,-19.803c-10.143,-4.648 -21.231,-6.972 -33.285,-6.972c-11.258,0 -20.215,1.985 -26.872,5.98c-6.658,3.995 -11.766,9.441 -15.372,16.365c-3.583,6.899 -5.979,15.13 -7.19,24.644c-1.186,9.514 -1.792,19.656 -1.792,30.43c0,10.845 0.606,21.037 1.816,30.598c1.211,9.539 3.607,17.842 7.214,24.863c3.608,7.044 8.74,12.588 15.397,16.655c6.633,4.09 15.565,6.125 26.799,6.125c11.934,0 23.094,-2.131 33.454,-6.416c10.362,-4.284 19.852,-10.579 28.446,-18.907l0,37.015c-4.696,2.977 -9.442,5.325 -14.187,7.069c-4.744,1.743 -9.852,3.195 -15.348,4.382c-5.495,1.161 -10.965,2.033 -16.437,2.614c-5.495,0.58 -10.796,0.871 -15.928,0.871c-15.808,0 -30.236,-2.639 -43.334,-7.892c-13.072,-5.277 -24.329,-12.588 -33.818,-21.98c-9.466,-9.369 -16.85,-20.456 -22.103,-33.215c-5.252,-12.781 -7.892,-26.797 -7.892,-42.073c0,-14.985 2.615,-28.784 7.844,-41.372c5.229,-12.612 12.612,-23.579 22.103,-32.875c9.513,-9.32 20.818,-16.558 33.914,-21.738c13.098,-5.182 27.526,-7.771 43.286,-7.771c5.132,0 10.433,0.339 15.928,1.016c5.496,0.703 10.87,1.623 16.122,2.784c5.278,1.187 10.314,2.712 15.179,4.576c4.843,1.888 9.539,4.26 14.089,7.117l0,37.91Z" style="fill:#2f2e2e;"/><path id="dp_path028" d="M1125.89,104.452c-8.569,-8.546 -17.913,-15.13 -28.033,-19.803c-10.143,-4.648 -21.231,-6.972 -33.286,-6.972c-11.257,0 -20.214,1.985 -26.872,5.98c-6.657,3.995 -11.765,9.441 -15.372,16.365c-3.582,6.899 -5.978,15.13 -7.189,24.644c-1.187,9.514 -1.792,19.656 -1.792,30.43c0,10.845 0.605,21.037 1.816,30.598c1.211,9.539 3.607,17.842 7.213,24.863c3.608,7.044 8.74,12.588 15.398,16.655c6.633,4.09 15.565,6.125 26.798,6.125c11.935,0 23.095,-2.131 33.455,-6.416c10.361,-4.284 19.852,-10.579 28.445,-18.907l0,37.015c-4.696,2.977 -9.441,5.325 -14.186,7.069c-4.744,1.743 -9.852,3.195 -15.348,4.382c-5.495,1.161 -10.966,2.033 -16.438,2.614c-5.494,0.58 -10.796,0.871 -15.928,0.871c-15.808,0 -30.236,-2.639 -43.333,-7.892c-13.072,-5.277 -24.329,-12.588 -33.819,-21.98c-9.465,-9.369 -16.849,-20.456 -22.102,-33.215c-5.252,-12.781 -7.892,-26.797 -7.892,-42.073c0,-14.985 2.614,-28.784 7.844,-41.372c5.229,-12.612 12.612,-23.579 22.102,-32.875c9.514,-9.32 20.819,-16.558 33.915,-21.738c13.097,-5.182 27.525,-7.771 43.285,-7.771c5.132,0 10.434,0.339 15.928,1.016c5.496,0.703 10.871,1.623 16.123,2.784c5.277,1.187 10.313,2.712 15.179,4.576c4.842,1.888 9.538,4.26 14.089,7.117l0,37.91Z" style="fill:#2f2e2e;"/><path id="dp_path029" d="M1232.94,260.449c-3.062,0.022 -12.443,-0.241 -17.187,-0.749c-9.417,-1.163 -18.81,-3.535 -28.202,-7.142c-9.37,-3.632 -17.818,-8.376 -25.299,-14.284c-7.48,-5.906 -13.604,-12.878 -18.373,-20.914c-4.77,-8.038 -7.335,-17.092 -7.747,-27.163l0,-3.509l0,-133.219l58.341,0l0,133.436c0,15.687 3.318,27.161 9.95,34.424c6.633,7.263 16.632,11.329 29.97,12.201c1.157,0.076 0.057,0.005 2.591,0.048c6.899,-0.556 13.339,-1.84 19.293,-3.825c5.98,-1.984 11.184,-4.841 15.687,-8.593c4.479,-3.752 7.965,-8.474 10.483,-14.114c2.517,-5.64 3.776,-12.37 3.776,-20.141l0,-133.436l26.87,0l0,135.639c-0.434,10.7 -2.42,20.045 -6.002,28.057c-3.559,8.013 -8.4,15.009 -14.55,20.94c-6.149,5.956 -13.314,10.749 -21.473,14.38c-8.181,3.656 -17.043,6.052 -26.604,7.215l-10.845,0.749c0,0 -0.453,-0.002 -0.679,0Z" style="fill:#2f2e2e;"/><path id="dp_path030" d="M1528.11,155.313c0,14.259 -2.542,27.621 -7.602,40.113c-5.084,12.492 -12.273,23.458 -21.593,32.899c-9.32,9.417 -20.553,16.825 -33.649,22.175c-13.122,5.35 -27.864,8.013 -44.23,8.013l-97.97,0l0,-205.285l97.97,0c16.704,0 31.69,2.734 44.955,8.206c13.267,5.447 24.5,12.855 33.699,22.175c9.198,9.296 16.244,20.141 21.109,32.536c4.865,12.369 7.311,25.443 7.311,39.168Zm-55.922,0.291c0,-11.935 -1.645,-22.587 -4.962,-31.979c-3.292,-9.369 -7.771,-17.309 -13.411,-23.773c-5.64,-6.487 -12.104,-11.426 -19.391,-14.863c-7.262,-3.413 -15.033,-5.133 -23.288,-5.133l-32.633,0l0,152.028l32.633,0c9.223,0 17.551,-1.791 24.983,-5.399c7.432,-3.583 13.823,-8.641 19.148,-15.179c5.351,-6.536 9.515,-14.548 12.468,-24.013c2.977,-9.491 4.453,-20.045 4.453,-31.689Z" style="fill:#2f2e2e;"/><rect id="dp_path031" x="1539.19" y="53.228" width="54.465" height="205.285" style="fill:#2f2e2e;"/><path id="dp_path032" d="M1759.98,155.096c0,-10.555 -0.61,-20.578 -1.82,-30.091c-1.21,-9.515 -3.66,-17.721 -7.36,-24.668c-3.68,-6.924 -8.86,-12.444 -15.52,-16.535c-6.65,-4.09 -15.66,-6.125 -27.04,-6.125c-11.23,0 -20.19,1.985 -26.82,5.98c-6.66,3.995 -11.77,9.441 -15.35,16.365c-3.58,6.899 -5.98,15.13 -7.19,24.644c-1.18,9.514 -1.79,19.656 -1.79,30.43c0,10.845 0.61,21.037 1.82,30.598c1.18,9.539 3.6,17.842 7.19,24.863c3.6,7.044 8.74,12.588 15.37,16.655c6.63,4.09 15.56,6.125 26.77,6.125c11.43,0 20.43,-1.985 27.07,-5.956c6.61,-3.995 11.76,-9.489 15.47,-16.533c3.7,-7.046 6.14,-15.398 7.38,-25.056c1.21,-9.659 1.82,-19.899 1.82,-30.696Zm55.67,-0.291c0,13.701 -2.63,26.871 -7.89,39.556c-5.25,12.661 -12.63,23.845 -22.15,33.553c-9.49,9.707 -20.82,17.454 -33.91,23.288c-13.12,5.834 -27.6,8.763 -43.43,8.763c-15.86,0 -30.29,-2.929 -43.31,-8.763c-13.03,-5.834 -24.31,-13.581 -33.8,-23.288c-9.51,-9.708 -16.87,-20.868 -22.12,-33.505c-5.26,-12.636 -7.87,-25.829 -7.87,-39.604c0,-13.581 2.64,-26.629 7.89,-39.12c5.28,-12.492 12.61,-23.507 22.03,-33.02c9.42,-9.515 20.7,-17.164 33.82,-22.949c13.12,-5.787 27.57,-8.667 43.36,-8.667c15.76,0 30.23,2.88 43.45,8.667c13.22,5.785 24.55,13.434 33.96,22.949c9.42,9.513 16.76,20.528 22.06,33.068c5.28,12.54 7.91,25.564 7.91,39.072Z" style="fill:#2f2e2e;"/></g><path id="dp_path033" d="M1952.89,282.817l-1521.49,0l1521.49,0Z" style="fill:none;stroke:#80a2bc;stroke-width:6.67px;"/><g id="dp_dp034"><path id="dp_path035" d="M510.075,354.144l14.828,-49.938l8.036,0l-20.951,66.967l-8.036,0l-14.828,-47.355l-14.829,47.355l-8.036,0l-20.951,-66.967l12.246,0l14.828,49.938l14.829,-49.938l8.036,0l14.828,49.938Z" style="fill:#676666;"/><path id="dp_path036" d="M536.894,371.173l0,-66.967l43.496,0l0,7.095l-32.814,0l0,21.525l29.848,0l0,7.096l-29.848,0l0,24.156l33.102,0l0,7.095l-43.784,0Z" style="fill:#676666;"/><path id="dp_path037" d="M584.599,371.173l0,-66.967l30.032,0c2.487,0 4.807,0.479 6.975,1.435c2.169,0.957 4.066,2.248 5.692,3.875c1.626,1.626 2.902,3.524 3.826,5.692c0.926,2.169 1.388,4.496 1.388,6.984c0,2.678 -0.542,5.15 -1.634,7.422c-1.084,2.264 -2.559,4.226 -4.408,5.883c2.909,1.659 5.277,3.955 7.078,6.888c1.81,2.927 2.711,6.179 2.711,9.751c0,2.678 -0.511,5.165 -1.531,7.461c-1.012,2.296 -2.384,4.305 -4.105,6.027c-1.715,1.722 -3.739,3.077 -6.059,4.066c-2.328,0.988 -4.824,1.483 -7.494,1.483l-32.471,0Zm10.921,-7.095l17.843,0c1.659,0 3.228,-0.352 4.72,-1.053c1.499,-0.701 2.805,-1.641 3.913,-2.813c1.116,-1.18 1.994,-2.536 2.623,-4.067c0.639,-1.523 0.957,-3.117 0.957,-4.775c0,-1.658 -0.318,-3.181 -0.957,-4.584c-0.629,-1.404 -1.507,-2.598 -2.623,-3.588c-1.108,-0.98 -2.414,-1.761 -3.913,-2.336c-1.492,-0.573 -3.061,-0.861 -4.72,-0.861l-17.843,0l0,24.077Zm0,-52.777l0,21.605l15.363,0c1.531,0 2.943,-0.286 4.249,-0.861c1.308,-0.573 2.432,-1.339 3.388,-2.296c0.958,-0.956 1.715,-2.088 2.288,-3.388c0.575,-1.307 0.862,-2.727 0.862,-4.257c0,-1.531 -0.287,-2.95 -0.862,-4.258c-0.573,-1.298 -1.33,-2.43 -2.288,-3.388c-0.956,-0.956 -2.08,-1.721 -3.388,-2.296c-1.306,-0.573 -2.718,-0.861 -4.249,-0.861l-15.363,0Z" style="fill:#676666;"/><path id="dp_path038" d="M641.936,355.021c1.02,1.467 2.296,2.807 3.827,4.019c1.531,1.212 3.188,2.28 4.975,3.204c1.785,0.925 3.666,1.658 5.644,2.201c1.977,0.541 3.922,0.844 5.836,0.908c4.528,-0.127 8.004,-1.148 10.426,-3.061c2.424,-1.922 3.636,-4.408 3.636,-7.47c0,-1.985 -0.494,-3.708 -1.482,-5.174c-0.99,-1.467 -2.264,-2.743 -3.827,-3.827c-1.563,-1.092 -3.333,-2.016 -5.309,-2.781c-1.978,-0.766 -3.923,-1.5 -5.836,-2.202c-2.296,-0.765 -4.624,-1.641 -6.984,-2.63c-2.36,-0.996 -4.464,-2.208 -6.314,-3.643c-1.85,-1.436 -3.365,-3.173 -4.545,-5.223c-1.18,-2.04 -1.769,-4.528 -1.769,-7.461c0,-3.069 0.589,-5.812 1.769,-8.236c1.172,-2.431 2.815,-4.504 4.92,-6.225c2.096,-1.731 4.568,-3.054 7.405,-3.979c2.839,-0.925 5.884,-1.387 9.136,-1.387c1.404,0 2.919,0.175 4.544,0.526c1.627,0.358 3.222,0.805 4.784,1.348c1.563,0.541 3.062,1.156 4.496,1.825c1.435,0.669 2.695,1.331 3.779,1.969l-0.095,10.244l-0.096,0c-1.913,-2.806 -4.385,-4.99 -7.414,-6.553c-3.03,-1.563 -6.298,-2.344 -9.806,-2.344c-1.722,0 -3.396,0.192 -5.022,0.575c-1.627,0.382 -3.046,0.972 -4.258,1.769c-1.212,0.797 -2.184,1.833 -2.917,3.117c-0.733,1.276 -1.1,2.775 -1.1,4.496c0,1.85 0.429,3.444 1.291,4.784c0.861,1.339 2.025,2.511 3.492,3.5c1.466,0.988 3.141,1.834 5.022,2.535c1.882,0.701 3.843,1.339 5.884,1.913c4.847,1.084 8.754,2.855 11.719,5.318c2.965,2.456 5.071,5.182 6.313,8.18c1.244,3.005 1.659,6.114 1.244,9.334c-0.414,3.23 -1.61,6.163 -3.586,8.81c-1.978,2.646 -4.704,4.824 -8.18,6.513c-3.476,1.691 -7.638,2.536 -12.484,2.536c-1.531,0 -3.174,-0.192 -4.928,-0.575c-1.754,-0.382 -3.491,-0.861 -5.214,-1.442c-1.721,-0.575 -3.372,-1.228 -4.966,-1.962c-1.595,-0.733 -2.998,-1.49 -4.202,-2.256l0.192,-11.193Z" style="fill:#676666;"/><rect id="dp_path039" x="689.45" y="304.126" width="10.602" height="67.047" style="fill:#676666;"/><path id="dp_path040" d="M731.735,311.301l0,59.872l-10.923,0l0,-59.872l-16.837,0l0,-7.095l44.215,0l0,7.095l-16.455,0Z" style="fill:#676666;"/><path id="dp_path041" d="M751.951,371.173l0,-66.967l43.496,0l0,7.095l-32.813,0l0,21.525l29.848,0l0,7.096l-29.848,0l0,24.156l33.101,0l0,7.095l-43.784,0Z" style="fill:#676666;"/><path id="dp_path042" d="M879.06,337.506c0,4.656 -0.67,9.024 -2.009,13.107c-1.34,4.073 -3.348,7.645 -6.027,10.707c-2.678,3.061 -6.028,5.468 -10.045,7.222c-4.019,1.754 -8.705,2.631 -14.063,2.631l-28.126,0l0,-67.047l28.126,0c5.484,0 10.252,0.894 14.302,2.679c4.05,1.787 7.398,4.193 10.045,7.223c2.647,3.029 4.608,6.561 5.884,10.612c1.275,4.049 1.913,8.338 1.913,12.866Zm-11.082,0.096c0,-4.145 -0.574,-7.837 -1.722,-11.089c-1.148,-3.245 -2.71,-6.004 -4.688,-8.268c-1.977,-2.264 -4.257,-3.993 -6.84,-5.205c-2.582,-1.212 -5.341,-1.818 -8.274,-1.818l-16.743,0l0,52.856l16.743,0c3.252,0 6.202,-0.638 8.849,-1.913c2.647,-1.276 4.911,-3.053 6.792,-5.349c1.881,-2.296 3.332,-5.071 4.352,-8.316c1.021,-3.252 1.531,-6.88 1.531,-10.898Z" style="fill:#676666;"/><path id="dp_path043" d="M882.823,371.173l0,-66.967l43.496,0l0,7.095l-32.813,0l0,21.525l29.848,0l0,7.096l-29.848,0l0,24.156l33.101,0l0,7.095l-43.784,0Z" style="fill:#676666;"/><path id="dp_path044" d="M932.251,355.021c1.02,1.467 2.296,2.807 3.827,4.019c1.53,1.212 3.188,2.28 4.974,3.204c1.786,0.925 3.667,1.658 5.644,2.201c1.978,0.541 3.923,0.844 5.836,0.908c4.528,-0.127 8.004,-1.148 10.427,-3.061c2.424,-1.922 3.636,-4.408 3.636,-7.47c0,-1.985 -0.495,-3.708 -1.483,-5.174c-0.989,-1.467 -2.264,-2.743 -3.826,-3.827c-1.563,-1.092 -3.334,-2.016 -5.31,-2.781c-1.977,-0.766 -3.922,-1.5 -5.836,-2.202c-2.296,-0.765 -4.624,-1.641 -6.984,-2.63c-2.36,-0.996 -4.464,-2.208 -6.313,-3.643c-1.851,-1.436 -3.365,-3.173 -4.545,-5.223c-1.18,-2.04 -1.77,-4.528 -1.77,-7.461c0,-3.069 0.59,-5.812 1.77,-8.236c1.172,-2.431 2.814,-4.504 4.92,-6.225c2.096,-1.731 4.568,-3.054 7.405,-3.979c2.839,-0.925 5.884,-1.387 9.136,-1.387c1.404,0 2.919,0.175 4.544,0.526c1.627,0.358 3.221,0.805 4.784,1.348c1.563,0.541 3.061,1.156 4.496,1.825c1.435,0.669 2.695,1.331 3.779,1.969l-0.095,10.244l-0.096,0c-1.913,-2.806 -4.385,-4.99 -7.415,-6.553c-3.029,-1.563 -6.297,-2.344 -9.805,-2.344c-1.723,0 -3.396,0.192 -5.023,0.575c-1.626,0.382 -3.045,0.972 -4.257,1.769c-1.212,0.797 -2.184,1.833 -2.917,3.117c-0.734,1.276 -1.1,2.775 -1.1,4.496c0,1.85 0.429,3.444 1.29,4.784c0.862,1.339 2.026,2.511 3.492,3.5c1.467,0.988 3.142,1.834 5.023,2.535c1.881,0.701 3.843,1.339 5.884,1.913c4.847,1.084 8.753,2.855 11.719,5.318c2.965,2.456 5.07,5.182 6.313,8.18c1.244,3.005 1.659,6.114 1.244,9.334c-0.415,3.23 -1.611,6.163 -3.587,8.81c-1.977,2.646 -4.704,4.824 -8.18,6.513c-3.476,1.691 -7.637,2.536 -12.484,2.536c-1.53,0 -3.173,-0.192 -4.928,-0.575c-1.753,-0.382 -3.49,-0.861 -5.213,-1.442c-1.721,-0.575 -3.372,-1.228 -4.967,-1.962c-1.594,-0.733 -2.997,-1.49 -4.201,-2.256l0.192,-11.193Z" style="fill:#676666;"/><rect id="dp_path045" x="979.764" y="304.126" width="10.603" height="67.047" style="fill:#676666;"/><path id="dp_path046" d="M1047.05,319.417c-1.794,-2.743 -4.456,-4.927 -7.996,-6.553c-3.548,-1.626 -7.423,-2.439 -11.64,-2.439c-3.962,0 -7.326,0.717 -10.1,2.152c-2.783,1.435 -5.063,3.38 -6.848,5.836c-1.795,2.455 -3.086,5.325 -3.883,8.601c-0.797,3.286 -1.196,6.746 -1.196,10.38c0,3.636 0.399,7.096 1.196,10.38c0.797,3.286 2.088,6.163 3.883,8.651c1.785,2.487 4.065,4.464 6.84,5.931c2.782,1.466 6.146,2.2 10.108,2.2c1.913,0 3.78,-0.175 5.597,-0.526c1.825,-0.35 3.564,-0.845 5.221,-1.482l0,-22.626l-15.21,0l0,-7.096l26.133,0l0,33.563c-1.212,0.765 -2.711,1.468 -4.497,2.105c-1.786,0.638 -3.675,1.196 -5.652,1.675c-1.978,0.477 -3.986,0.844 -6.027,1.1c-2.041,0.255 -3.891,0.383 -5.557,0.383c-5.166,0 -9.79,-0.958 -13.879,-2.871c-4.083,-1.913 -7.543,-4.448 -10.38,-7.605c-2.839,-3.158 -5.031,-6.808 -6.561,-10.962c-1.531,-4.145 -2.296,-8.45 -2.296,-12.914c0,-4.466 0.765,-8.739 2.296,-12.82c1.53,-4.09 3.714,-7.694 6.561,-10.819c2.837,-3.125 6.297,-5.628 10.38,-7.509c4.089,-1.882 8.713,-2.823 13.879,-2.823c1.722,0 3.476,0.112 5.27,0.335c1.786,0.224 3.539,0.526 5.262,0.909c1.721,0.383 3.364,0.885 4.926,1.491c1.563,0.606 2.958,1.292 4.17,2.057l0,11.296Z" style="fill:#676666;"/><path id="dp_path047" d="M1098.88,371.173l-38.88,-51.644l0,51.644l-7.016,0l0,-67.047l7.016,0.096l39.861,52.314l0,-52.41l6.856,0l0,67.047l-7.837,0Z" style="fill:#676666;"/><path id="dp_path048" d="M1169.86,350.924l-24.873,0l-7.175,20.249l-8.036,0l23.821,-66.967l11.48,0l23.822,66.967l-11.863,0l-7.176,-20.249Zm-22.385,-7.096l19.802,0l-9.853,-28.03l-9.949,28.03Z" style="fill:#676666;"/><path id="dp_path049" d="M1238.68,371.173l-38.88,-51.644l0,51.644l-7.016,0l0,-67.047l7.016,0.096l39.861,52.314l0,-52.41l6.856,0l0,67.047l-7.837,0Z" style="fill:#676666;"/><path id="dp_path050" d="M1310.71,337.506c0,4.656 -0.671,9.024 -2.01,13.107c-1.34,4.073 -3.348,7.645 -6.026,10.707c-2.679,3.061 -6.028,5.468 -10.046,7.222c-4.018,1.754 -8.705,2.631 -14.062,2.631l-28.127,0l0,-67.047l28.127,0c5.484,0 10.252,0.894 14.301,2.679c4.051,1.787 7.399,4.193 10.045,7.223c2.647,3.029 4.608,6.561 5.884,10.612c1.275,4.049 1.914,8.338 1.914,12.866Zm-11.083,0.096c0,-4.145 -0.573,-7.837 -1.721,-11.089c-1.148,-3.245 -2.711,-6.004 -4.688,-8.268c-1.978,-2.264 -4.258,-3.993 -6.84,-5.205c-2.583,-1.212 -5.342,-1.818 -8.275,-1.818l-16.743,0l0,52.856l16.743,0c3.252,0 6.203,-0.638 8.849,-1.913c2.647,-1.276 4.911,-3.053 6.792,-5.349c1.882,-2.296 3.332,-5.071 4.352,-8.316c1.022,-3.252 1.531,-6.88 1.531,-10.898Z" style="fill:#676666;"/><path id="dp_path051" d="M1393.88,337.506c0,4.656 -0.67,9.024 -2.009,13.107c-1.34,4.073 -3.348,7.645 -6.027,10.707c-2.678,3.061 -6.028,5.468 -10.045,7.222c-4.019,1.754 -8.705,2.631 -14.063,2.631l-28.126,0l0,-67.047l28.126,0c5.484,0 10.252,0.894 14.302,2.679c4.05,1.787 7.398,4.193 10.045,7.223c2.647,3.029 4.608,6.561 5.884,10.612c1.275,4.049 1.913,8.338 1.913,12.866Zm-11.082,0.096c0,-4.145 -0.574,-7.837 -1.722,-11.089c-1.148,-3.245 -2.71,-6.004 -4.688,-8.268c-1.977,-2.264 -4.257,-3.993 -6.84,-5.205c-2.582,-1.212 -5.341,-1.818 -8.274,-1.818l-16.743,0l0,52.856l16.743,0c3.252,0 6.202,-0.638 8.849,-1.913c2.647,-1.276 4.911,-3.053 6.792,-5.349c1.881,-2.296 3.332,-5.071 4.352,-8.316c1.021,-3.252 1.531,-6.88 1.531,-10.898Z" style="fill:#676666;"/><path id="dp_path052" d="M1397.64,371.173l0,-66.967l43.496,0l0,7.095l-32.813,0l0,21.525l29.848,0l0,7.096l-29.848,0l0,24.156l33.101,0l0,7.095l-43.784,0Z" style="fill:#676666;"/><path id="dp_path053" d="M1475.29,354.144l17.7,-49.938l8.04,0l-23.82,66.967l-8.04,0l-23.82,-66.967l12.24,0l17.7,49.938Z" style="fill:#676666;"/><path id="dp_path054" d="M1504.79,371.173l0,-66.967l43.5,0l0,7.095l-32.82,0l0,21.525l29.85,0l0,7.096l-29.85,0l0,24.156l33.1,0l0,7.095l-43.78,0Z" style="fill:#676666;"/><path id="dp_path055" d="M1552.49,371.173l0,-66.967l10.85,0l0,59.872l33,0l0,7.095l-43.85,0Z" style="fill:#676666;"/><path id="dp_path056" d="M1655.53,337.394c0,-3.634 -0.42,-7.078 -1.24,-10.332c-0.83,-3.244 -2.13,-6.098 -3.89,-8.553c-1.75,-2.456 -4.03,-4.417 -6.85,-5.884c-2.8,-1.467 -6.21,-2.2 -10.24,-2.2c-3.96,0 -7.33,0.717 -10.1,2.152c-2.78,1.435 -5.06,3.38 -6.85,5.836c-1.79,2.455 -3.08,5.325 -3.88,8.601c-0.8,3.286 -1.2,6.746 -1.2,10.38c0,3.636 0.4,7.096 1.2,10.38c0.8,3.286 2.09,6.163 3.88,8.651c1.79,2.487 4.07,4.464 6.85,5.931c2.77,1.466 6.14,2.2 10.1,2.2c4.03,0 7.44,-0.718 10.24,-2.152c2.82,-1.435 5.1,-3.396 6.85,-5.884c1.76,-2.487 3.06,-5.374 3.89,-8.65c0.82,-3.285 1.24,-6.776 1.24,-10.476Zm11,-0.094c0,4.464 -0.75,8.769 -2.25,12.914c-1.5,4.154 -3.68,7.804 -6.56,10.962c-2.87,3.157 -6.36,5.692 -10.47,7.605c-4.12,1.913 -8.77,2.871 -13.93,2.871c-5.17,0 -9.8,-0.958 -13.88,-2.871c-4.08,-1.913 -7.54,-4.448 -10.38,-7.605c-2.85,-3.158 -5.03,-6.808 -6.56,-10.962c-1.53,-4.145 -2.3,-8.45 -2.3,-12.914c0,-4.466 0.77,-8.739 2.3,-12.82c1.53,-4.09 3.71,-7.694 6.56,-10.819c2.84,-3.125 6.3,-5.628 10.38,-7.509c4.08,-1.882 8.71,-2.823 13.88,-2.823c5.16,0 9.81,0.941 13.93,2.823c4.11,1.881 7.6,4.384 10.47,7.509c2.88,3.125 5.06,6.729 6.56,10.819c1.5,4.081 2.25,8.354 2.25,12.82Z" style="fill:#676666;"/><path id="dp_path057" d="M1681.28,342.553l0,28.62l-10.92,0l0,-66.967l26.87,0c2.62,0 5.18,0.511 7.7,1.531c2.52,1.02 4.76,2.392 6.74,4.113c1.98,1.723 3.57,3.739 4.78,6.067c1.21,2.328 1.82,4.832 1.82,7.511c0,2.678 -0.61,5.181 -1.82,7.509c-1.21,2.328 -2.8,4.345 -4.77,6.067c-1.98,1.722 -4.23,3.077 -6.74,4.066c-2.52,0.988 -5.09,1.483 -7.7,1.483l-15.96,0Zm0,-7.096l14.04,0c1.65,0 3.21,-0.319 4.68,-0.956c1.46,-0.639 2.73,-1.491 3.82,-2.575c1.08,-1.085 1.93,-2.36 2.57,-3.818c0.64,-1.468 0.96,-3.023 0.96,-4.68c0,-1.659 -0.32,-3.214 -0.96,-4.68c-0.64,-1.459 -1.49,-2.735 -2.57,-3.819c-1.09,-1.084 -2.36,-1.953 -3.82,-2.623c-1.47,-0.669 -3.03,-1.005 -4.68,-1.005l-14.04,0l0,24.156Z" style="fill:#676666;"/><path id="dp_path058" d="M1774.76,371.173l0,-53l-22.75,37.119l-23.09,-36.354l0,52.235l-6.77,0l0,-66.967l9.86,0l22.49,34.154l21.91,-34.154l9.19,0l0,66.967l-10.84,0Z" style="fill:#676666;"/><path id="dp_path059" d="M1789.49,371.173l0,-66.967l43.5,0l0,7.095l-32.81,0l0,21.525l29.85,0l0,7.096l-29.85,0l0,24.156l33.1,0l0,7.095l-43.79,0Z" style="fill:#676666;"/><path id="dp_path060" d="M1883.1,371.173l-38.88,-51.644l0,51.644l-7.02,0l0,-67.047l7.02,0.096l39.86,52.314l0,-52.41l6.85,0l0,67.047l-7.83,0Z" style="fill:#676666;"/><path id="dp_path061" d="M1922.6,311.301l0,59.872l-10.92,0l0,-59.872l-16.84,0l0,-7.095l44.21,0l0,7.095l-16.45,0Z" style="fill:#676666;"/></g></g></g><defs><linearGradient id="_Linear2" x1="0" y1="0" x2="1" y2="0" gradientUnits="userSpaceOnUse" gradientTransform="matrix(87.15,-41.063,41.063,87.15,109.631,199.268)"><stop offset="0" style="stop-color:#898989;stop-opacity:1"/><stop offset="1" style="stop-color:#676666;stop-opacity:1"/></linearGradient><linearGradient id="_Linear3" x1="0" y1="0" x2="1" y2="0" gradientUnits="userSpaceOnUse" gradientTransform="matrix(43.5116,0,0,43.5116,65.9714,197.572)"><stop offset="0" style="stop-color:#8d8c8c;stop-opacity:1"/><stop offset="1" style="stop-color:#a8a8a8;stop-opacity:1"/></linearGradient><linearGradient id="_Linear4" x1="0" y1="0" x2="1" y2="0" gradientUnits="userSpaceOnUse" gradientTransform="matrix(-16.167,72.685,-72.685,-16.167,125.153,125.609)"><stop offset="0" style="stop-color:#8d8c8c;stop-opacity:1"/><stop offset="1" style="stop-color:#a8a8a8;stop-opacity:1"/></linearGradient></defs></svg>